<svg width="126" height="26" viewBox="0 0 126 26" fill="none" xmlns="http://www.w3.org/2000/svg">
<path d="M6.288 24.112C5.24267 24.112 4.28267 23.8667 3.408 23.376C2.53333 22.8853 1.84 22.208 1.328 21.344C0.816 20.4693 0.56 19.4827 0.56 18.384C0.56 17.296 0.816 16.32 1.328 15.456C1.84 14.5813 2.53333 13.8987 3.408 13.408C4.28267 12.9173 5.24267 12.672 6.288 12.672C7.344 12.672 8.304 12.9173 9.168 13.408C10.0427 13.8987 10.7307 14.5813 11.232 15.456C11.744 16.32 12 17.296 12 18.384C12 19.4827 11.744 20.4693 11.232 21.344C10.7307 22.208 10.0427 22.8853 9.168 23.376C8.29333 23.8667 7.33333 24.112 6.288 24.112ZM6.288 22.112C6.96 22.112 7.552 21.9627 8.064 21.664C8.576 21.3547 8.976 20.9173 9.264 20.352C9.552 19.7867 9.696 19.1307 9.696 18.384C9.696 17.6373 9.552 16.9867 9.264 16.432C8.976 15.8667 8.576 15.4347 8.064 15.136C7.552 14.8373 6.96 14.688 6.288 14.688C5.616 14.688 5.01867 14.8373 4.496 15.136C3.984 15.4347 3.584 15.8667 3.296 16.432C3.008 16.9867 2.864 17.6373 2.864 18.384C2.864 19.1307 3.008 19.7867 3.296 20.352C3.584 20.9173 3.984 21.3547 4.496 21.664C5.01867 21.9627 5.616 22.112 6.288 22.112ZM23.2185 24H20.9785L15.9065 16.336V24H13.6665V12.816H15.9065L20.9785 20.496V12.816H23.2185V24ZM27.6721 14.64V17.44H31.4321V19.216H27.6721V22.176H31.9121V24H25.4321V12.816H31.9121V14.64H27.6721ZM45.3603 12.832V14.64H42.3843V24H40.1443V14.64H37.1683V12.832H45.3603ZM52.7546 24L50.2906 19.648H49.2346V24H46.9946V12.832H51.1866C52.0506 12.832 52.7866 12.9867 53.3946 13.296C54.0026 13.5947 54.456 14.0053 54.7546 14.528C55.064 15.04 55.2186 15.616 55.2186 16.256C55.2186 16.992 55.0053 17.6587 54.5786 18.256C54.152 18.8427 53.5173 19.248 52.6746 19.472L55.3466 24H52.7546ZM49.2346 17.968H51.1066C51.7146 17.968 52.168 17.824 52.4666 17.536C52.7653 17.2373 52.9146 16.8267 52.9146 16.304C52.9146 15.792 52.7653 15.3973 52.4666 15.12C52.168 14.832 51.7146 14.688 51.1066 14.688H49.2346V17.968ZM59.4846 14.64V17.44H63.2446V19.216H59.4846V22.176H63.7246V24H57.2446V12.816H63.7246V14.64H59.4846ZM68.0003 14.64V17.44H71.7603V19.216H68.0003V22.176H72.2403V24H65.7603V12.816H72.2403V14.64H68.0003ZM84.7461 20.0625L84.7773 17.6875V16.9062C84.7773 16.2812 84.7148 15.8854 84.5898 15.7188C84.4023 15.4271 84.1107 15.2917 83.7148 15.3125C83.319 15.3125 83.0273 15.4271 82.8398 15.6562C82.6732 15.8854 82.569 16.1667 82.5273 16.5C82.5065 16.8333 82.4857 17.1979 82.4648 17.5938C82.4648 17.9896 82.4648 18.4167 82.4648 18.875C82.4232 19.7917 82.4232 20.5 82.4648 21C82.5273 21.5 82.5273 21.8229 82.4648 21.9688C82.4232 22.0938 82.319 22.2292 82.1523 22.375C81.9857 22.5 81.8503 22.6771 81.7461 22.9062C81.6419 23.1146 81.5482 23.3333 81.4648 23.5625C81.2148 24.1042 80.9544 24.3854 80.6836 24.4062C79.8711 24.4896 79.1732 24.0521 78.5898 23.0938C78.4648 22.8646 78.2982 22.6458 78.0898 22.4375C77.6523 21.9583 77.569 21.1875 77.8398 20.125C77.944 19.625 77.9961 19.1146 77.9961 18.5938C77.9961 18.0521 77.9753 17.6667 77.9336 17.4375C77.8919 17.2083 77.8919 16.9583 77.9336 16.6875C77.9753 16.3958 77.944 16.1458 77.8398 15.9375C77.7357 15.7083 77.694 15.4167 77.7148 15.0625C77.7565 14.7083 77.7357 14.4062 77.6523 14.1562C77.5898 13.8854 77.5794 13.6458 77.6211 13.4375C77.6628 13.2292 77.6315 13.0625 77.5273 12.9375C77.444 12.8125 77.4128 12.6354 77.4336 12.4062C77.4753 12.1562 77.5065 11.8958 77.5273 11.625C77.5898 10.875 77.4961 10.3021 77.2461 9.90625C76.9961 9.51042 76.7773 9.05208 76.5898 8.53125C76.4232 8.01042 76.4544 7.38542 76.6836 6.65625C77.0378 5.55208 77.1419 4.33333 76.9961 3C76.9544 2.66667 77.0273 2.28125 77.2148 1.84375C77.4857 1.15625 78.3711 0.770833 79.8711 0.6875C80.3503 0.666667 80.7773 0.604167 81.1523 0.5C81.5482 0.395833 81.9336 0.395833 82.3086 0.5C82.7044 0.583333 82.9336 0.822917 82.9961 1.21875C83.0586 1.61458 83.1107 1.88542 83.1523 2.03125C83.2148 2.17708 83.2565 2.32292 83.2773 2.46875C83.319 2.73958 83.2773 3.17708 83.1523 3.78125C83.0273 4.36458 82.9544 4.86458 82.9336 5.28125C82.9128 5.67708 82.9023 6.0625 82.9023 6.4375C82.944 7.35417 82.9023 8.01042 82.7773 8.40625C82.6732 8.78125 82.6419 9.07292 82.6836 9.28125C82.7253 9.46875 82.8086 9.625 82.9336 9.75C83.3503 10.125 83.9232 10.0833 84.6523 9.625C84.7565 9.5625 84.8503 9.45833 84.9336 9.3125C84.8294 8.72917 84.7669 8.01042 84.7461 7.15625C84.7253 5.88542 84.6836 4.89583 84.6211 4.1875C84.5586 3.45833 84.569 2.85417 84.6523 2.375C84.7357 1.89583 84.9544 1.44792 85.3086 1.03125C85.6628 0.614583 85.9857 0.4375 86.2773 0.5C86.5898 0.541667 86.8398 0.666667 87.0273 0.875C87.2357 1.0625 87.4232 1.14583 87.5898 1.125C87.7565 1.10417 87.9857 1 88.2773 0.8125C89.0482 0.354167 89.7669 0.635417 90.4336 1.65625C90.2253 1.86458 90.1628 2.25 90.2461 2.8125C90.3503 3.35417 90.3711 3.75 90.3086 4C90.2461 4.22917 90.2044 4.5625 90.1836 5C90.1628 5.41667 90.1419 5.82292 90.1211 6.21875C90.1211 6.61458 90.069 7.13542 89.9648 7.78125C89.819 8.67708 89.8086 9.70833 89.9336 10.875C90.0586 12.0417 90.0794 13.0938 89.9961 14.0312C89.9128 14.9688 89.8919 15.75 89.9336 16.375C89.9753 17 89.9544 17.4167 89.8711 17.625C89.8086 17.8333 89.7357 18.0417 89.6523 18.25C89.3398 18.8542 89.1628 19.4688 89.1211 20.0938C89.0794 20.6146 89.0482 21.1354 89.0273 21.6562C89.0065 22.1562 88.9544 22.6042 88.8711 23C88.6836 23.8958 88.2565 24.3438 87.5898 24.3438C86.8398 24.3438 86.4128 23.7708 86.3086 22.625C85.8294 22.4792 85.4336 22.2292 85.1211 21.875C84.8294 21.5208 84.7044 20.9167 84.7461 20.0625ZM92.8086 18.125L92.7773 16.5312C92.7773 16.2396 92.7878 15.9688 92.8086 15.7188C92.8294 15.4479 92.8086 15.1146 92.7461 14.7188C92.6419 14.0312 92.5898 13.5312 92.5898 13.2188C92.6107 12.8854 92.6107 12.625 92.5898 12.4375C92.5898 12.2292 92.569 12.0417 92.5273 11.875C92.4648 11.625 92.3086 11.2292 92.0586 10.6875C91.8294 10.1458 91.7148 9.5625 91.7148 8.9375C91.7148 8.3125 91.8503 7.8125 92.1211 7.4375C92.3711 7.0625 92.4648 6.67708 92.4023 6.28125C92.3398 5.88542 92.2878 5.46875 92.2461 5.03125C92.2253 4.57292 92.2253 4.11458 92.2461 3.65625C92.2669 3.17708 92.3711 2.71875 92.5586 2.28125C93.0169 1.21875 93.9336 0.708333 95.3086 0.75C96.1628 0.770833 96.9023 0.854167 97.5273 1C98.1523 1.14583 98.6107 1.20833 98.9023 1.1875C99.194 1.16667 99.6419 1.0625 100.246 0.875C101.121 0.541667 101.819 0.5625 102.34 0.9375C102.486 1.04167 102.621 1.125 102.746 1.1875C102.892 1.22917 103.017 1.30208 103.121 1.40625C103.475 1.80208 103.579 2.66667 103.434 4C103.392 4.39583 103.35 4.79167 103.309 5.1875C103.204 6.125 103.204 6.82292 103.309 7.28125C103.413 7.73958 103.465 8.14583 103.465 8.5C103.486 8.83333 103.475 9.13542 103.434 9.40625C103.309 10.0104 103.069 10.3125 102.715 10.3125C102.402 10.2917 102.173 10.1979 102.027 10.0312C101.902 9.84375 101.798 9.64583 101.715 9.4375C101.632 9.20833 101.538 9.01042 101.434 8.84375C101.35 8.65625 101.152 8.5625 100.84 8.5625C99.9232 8.5625 99.3086 8.46875 98.9961 8.28125C98.7044 8.07292 98.444 7.95833 98.2148 7.9375C97.9857 7.89583 97.7669 7.91667 97.5586 8C97.1211 8.1875 96.8607 8.53125 96.7773 9.03125C96.7148 9.53125 96.6732 9.96875 96.6523 10.3438C96.6315 10.7188 96.6315 11.0625 96.6523 11.375C96.694 12.1042 96.8294 12.5208 97.0586 12.625C97.3086 12.7083 97.5169 12.7188 97.6836 12.6562C97.8503 12.5729 98.0169 12.4792 98.1836 12.375C98.6836 12.0417 99.194 11.8854 99.7148 11.9062C100.257 11.9062 100.652 12.1146 100.902 12.5312C101.173 12.9479 101.288 13.3542 101.246 13.75C101.204 14.125 101.163 14.5 101.121 14.875C101.1 15.25 101.059 15.6042 100.996 15.9375C100.704 17.2292 100.1 17.4792 99.1836 16.6875C97.9961 16.6042 97.2565 16.75 96.9648 17.125C96.9023 17.2292 96.8398 17.4479 96.7773 17.7812C96.7148 18.1146 96.7044 18.4688 96.7461 18.8438C96.8503 19.8229 97.319 20.3438 98.1523 20.4062C98.694 20.4479 99.1836 20.375 99.6211 20.1875C100.079 20 100.382 19.7917 100.527 19.5625C100.652 19.3125 100.809 19.1771 100.996 19.1562C101.184 19.1146 101.35 19.0833 101.496 19.0625C101.642 19.0208 101.788 19 101.934 19C102.079 19 102.225 19.0208 102.371 19.0625C102.746 19.1875 102.965 19.4792 103.027 19.9375C103.111 20.3958 103.069 20.8125 102.902 21.1875C102.736 21.5625 102.621 21.9062 102.559 22.2188C102.517 22.5104 102.475 22.7292 102.434 22.875C102.392 23.0208 102.267 23.2083 102.059 23.4375C101.871 23.6458 101.715 23.8229 101.59 23.9688C101.486 24.1146 101.309 24.0833 101.059 23.875C100.6 23.5208 100.048 23.7292 99.4023 24.5C99.2357 24.7292 99.0586 24.8958 98.8711 25C98.6836 25.1042 98.3919 25.1458 97.9961 25.125C97.6003 25.1042 97.2878 25 97.0586 24.8125C96.8294 24.625 96.6211 24.4375 96.4336 24.25C96.1211 23.8542 95.5794 23.7083 94.8086 23.8125C94.3503 23.875 93.9753 23.6771 93.6836 23.2188C93.6211 23.1562 93.569 23.0417 93.5273 22.875C93.5065 22.7083 93.4753 22.5208 93.4336 22.3125C93.2878 21.7708 93.1523 21.4271 93.0273 21.2812C92.9232 21.1146 92.8607 20.9062 92.8398 20.6562C92.8398 20.4062 92.819 20.1458 92.7773 19.875C92.7357 19.5833 92.7044 19.375 92.6836 19.25C92.6628 19.1042 92.6732 18.9375 92.7148 18.75C92.7773 18.5625 92.8086 18.3542 92.8086 18.125ZM114.684 19.2812C114.788 19.4271 114.829 19.6146 114.809 19.8438C114.809 20.0521 114.788 20.2708 114.746 20.5C114.725 20.7292 114.736 20.9896 114.777 21.2812C114.819 21.5521 114.85 21.8229 114.871 22.0938C114.913 22.3438 114.934 22.5833 114.934 22.8125C114.934 23.0417 114.861 23.2396 114.715 23.4062C114.59 23.5521 114.392 23.6771 114.121 23.7812C113.85 23.8854 113.548 23.9583 113.215 24C112.444 24.0625 111.777 23.9479 111.215 23.6562C110.694 23.3854 110.194 23.3021 109.715 23.4062C109.257 23.5104 108.892 23.6146 108.621 23.7188C108.371 23.8021 108.069 23.8854 107.715 23.9688C107.382 24.0521 107.048 24.0833 106.715 24.0625C106.382 24.0625 106.1 23.8854 105.871 23.5312C105.642 23.1562 105.517 22.7292 105.496 22.25C105.475 21.7708 105.548 21.2812 105.715 20.7812C105.882 20.2812 105.944 19.7188 105.902 19.0938C105.861 18.4479 105.819 17.9062 105.777 17.4688C105.736 17.0104 105.736 16.6146 105.777 16.2812C105.882 15.4896 105.788 14.9375 105.496 14.625C105.267 14.3542 105.152 14.0417 105.152 13.6875C105.152 13.3125 105.163 13.0104 105.184 12.7812C105.204 12.5521 105.277 12.3542 105.402 12.1875C105.527 12.0208 105.6 11.8854 105.621 11.7812C105.663 11.6562 105.663 11.4479 105.621 11.1562C105.454 9.96875 105.392 9.05208 105.434 8.40625C105.496 7.76042 105.486 7.20833 105.402 6.75C105.34 6.27083 105.329 5.88542 105.371 5.59375C105.413 5.28125 105.392 5.02083 105.309 4.8125C105.225 4.60417 105.194 4.45833 105.215 4.375C105.257 4.27083 105.257 4.13542 105.215 3.96875C105.173 3.78125 105.132 3.58333 105.09 3.375C104.965 2.75 104.923 2.32292 104.965 2.09375C105.027 1.86458 105.132 1.60417 105.277 1.3125C105.444 1 105.642 0.8125 105.871 0.75C106.1 0.6875 106.236 0.635417 106.277 0.59375C106.319 0.552083 106.423 0.5 106.59 0.4375C107.027 0.3125 107.35 0.302083 107.559 0.40625C107.767 0.510417 107.954 0.572917 108.121 0.59375C108.288 0.59375 108.454 0.59375 108.621 0.59375C108.809 0.572917 108.986 0.541667 109.152 0.5L109.527 0.4375C109.965 0.3125 110.298 0.333333 110.527 0.5C110.673 0.645833 110.777 0.760417 110.84 0.84375C110.902 0.927083 110.913 1.05208 110.871 1.21875C110.829 1.38542 110.85 1.52083 110.934 1.625C111.017 1.72917 111.048 1.88542 111.027 2.09375C111.007 2.28125 110.996 2.42708 110.996 2.53125C111.017 2.61458 111.038 2.70833 111.059 2.8125C111.1 3.02083 111.079 3.27083 110.996 3.5625C110.913 3.85417 110.861 4.05208 110.84 4.15625C110.819 4.23958 110.809 4.32292 110.809 4.40625C110.809 4.67708 110.767 4.9375 110.684 5.1875C110.621 5.41667 110.579 5.61458 110.559 5.78125C110.559 5.92708 110.559 6.10417 110.559 6.3125V7C110.559 7.25 110.538 7.5625 110.496 7.9375C110.475 8.3125 110.444 8.76042 110.402 9.28125C110.382 9.78125 110.361 10.2917 110.34 10.8125C110.257 12.1875 110.152 13.0625 110.027 13.4375C109.694 13.625 109.642 14.0625 109.871 14.75L110.09 15.4062C110.298 16.0312 110.402 16.6458 110.402 17.25C110.402 17.8542 110.35 18.4375 110.246 19C110.85 19.3333 111.277 19.5104 111.527 19.5312C112.132 19.6146 112.673 19.5312 113.152 19.2812C113.652 19.0312 114.007 18.9271 114.215 18.9688C114.444 19.0104 114.6 19.1146 114.684 19.2812ZM124.84 19.2812C124.944 19.4271 124.986 19.6146 124.965 19.8438C124.965 20.0521 124.944 20.2708 124.902 20.5C124.882 20.7292 124.892 20.9896 124.934 21.2812C124.975 21.5521 125.007 21.8229 125.027 22.0938C125.069 22.3438 125.09 22.5833 125.09 22.8125C125.09 23.0417 125.017 23.2396 124.871 23.4062C124.746 23.5521 124.548 23.6771 124.277 23.7812C124.007 23.8854 123.704 23.9583 123.371 24C122.6 24.0625 121.934 23.9479 121.371 23.6562C120.85 23.3854 120.35 23.3021 119.871 23.4062C119.413 23.5104 119.048 23.6146 118.777 23.7188C118.527 23.8021 118.225 23.8854 117.871 23.9688C117.538 24.0521 117.204 24.0833 116.871 24.0625C116.538 24.0625 116.257 23.8854 116.027 23.5312C115.798 23.1562 115.673 22.7292 115.652 22.25C115.632 21.7708 115.704 21.2812 115.871 20.7812C116.038 20.2812 116.1 19.7188 116.059 19.0938C116.017 18.4479 115.975 17.9062 115.934 17.4688C115.892 17.0104 115.892 16.6146 115.934 16.2812C116.038 15.4896 115.944 14.9375 115.652 14.625C115.423 14.3542 115.309 14.0417 115.309 13.6875C115.309 13.3125 115.319 13.0104 115.34 12.7812C115.361 12.5521 115.434 12.3542 115.559 12.1875C115.684 12.0208 115.757 11.8854 115.777 11.7812C115.819 11.6562 115.819 11.4479 115.777 11.1562C115.611 9.96875 115.548 9.05208 115.59 8.40625C115.652 7.76042 115.642 7.20833 115.559 6.75C115.496 6.27083 115.486 5.88542 115.527 5.59375C115.569 5.28125 115.548 5.02083 115.465 4.8125C115.382 4.60417 115.35 4.45833 115.371 4.375C115.413 4.27083 115.413 4.13542 115.371 3.96875C115.329 3.78125 115.288 3.58333 115.246 3.375C115.121 2.75 115.079 2.32292 115.121 2.09375C115.184 1.86458 115.288 1.60417 115.434 1.3125C115.6 1 115.798 0.8125 116.027 0.75C116.257 0.6875 116.392 0.635417 116.434 0.59375C116.475 0.552083 116.579 0.5 116.746 0.4375C117.184 0.3125 117.507 0.302083 117.715 0.40625C117.923 0.510417 118.111 0.572917 118.277 0.59375C118.444 0.59375 118.611 0.59375 118.777 0.59375C118.965 0.572917 119.142 0.541667 119.309 0.5L119.684 0.4375C120.121 0.3125 120.454 0.333333 120.684 0.5C120.829 0.645833 120.934 0.760417 120.996 0.84375C121.059 0.927083 121.069 1.05208 121.027 1.21875C120.986 1.38542 121.007 1.52083 121.09 1.625C121.173 1.72917 121.204 1.88542 121.184 2.09375C121.163 2.28125 121.152 2.42708 121.152 2.53125C121.173 2.61458 121.194 2.70833 121.215 2.8125C121.257 3.02083 121.236 3.27083 121.152 3.5625C121.069 3.85417 121.017 4.05208 120.996 4.15625C120.975 4.23958 120.965 4.32292 120.965 4.40625C120.965 4.67708 120.923 4.9375 120.84 5.1875C120.777 5.41667 120.736 5.61458 120.715 5.78125C120.715 5.92708 120.715 6.10417 120.715 6.3125V7C120.715 7.25 120.694 7.5625 120.652 7.9375C120.632 8.3125 120.6 8.76042 120.559 9.28125C120.538 9.78125 120.517 10.2917 120.496 10.8125C120.413 12.1875 120.309 13.0625 120.184 13.4375C119.85 13.625 119.798 14.0625 120.027 14.75L120.246 15.4062C120.454 16.0312 120.559 16.6458 120.559 17.25C120.559 17.8542 120.507 18.4375 120.402 19C121.007 19.3333 121.434 19.5104 121.684 19.5312C122.288 19.6146 122.829 19.5312 123.309 19.2812C123.809 19.0312 124.163 18.9271 124.371 18.9688C124.6 19.0104 124.757 19.1146 124.84 19.2812Z" fill="white"/>
</svg>
